<?xml version="1.0" standalone="no"?>
<!DOCTYPE svg PUBLIC "-//W3C//DTD SVG 20010904//EN"
 "http://www.w3.org/TR/2001/REC-SVG-20010904/DTD/svg10.dtd">
<svg version="1.0" xmlns="http://www.w3.org/2000/svg"
 width="280" height="50" viewBox="0 -50 500 350" fill="#57586E"
 preserveAspectRatio="xMidYMid meet">

<g transform="translate(0.000000,224.000000) scale(0.100000,-0.100000)"
fill="#000000" stroke="none">
<path d="M675 2231 c-63 -16 -126 -63 -153 -117 -7 -14 -38 -31 -89 -49 -102
-36 -271 -120 -305 -152 -35 -33 -42 -69 -28 -140 11 -50 53 -153 64 -153 2 0
31 18 64 40 70 47 192 96 192 78 0 -7 -88 -351 -195 -765 -129 -499 -195 -769
-195 -803 0 -100 50 -140 178 -140 122 0 176 30 220 122 11 24 55 178 97 343
42 165 83 320 89 345 13 49 4 46 119 42 50 -2 54 -4 65 -35 20 -57 119 -215
209 -335 102 -137 343 -384 425 -436 100 -63 192 -69 333 -19 82 30 105 47
105 81 0 68 -94 182 -150 182 -37 0 -90 41 -196 152 -129 136 -344 418 -344
453 0 6 33 21 73 34 236 75 435 217 515 368 74 139 94 343 48 474 -60 170
-199 299 -391 365 -107 36 -312 45 -449 19 -89 -16 -90 -16 -105 4 -33 42
-118 61 -196 42z m600 -377 c174 -60 246 -203 185 -367 -66 -175 -353 -307
-669 -307 l-94 0 7 40 c5 34 129 557 142 601 3 11 31 22 87 34 45 9 87 19 92
21 25 9 205 -6 250 -22z" fill="#57586E"/>
<path d="M2987 2205 c-610 -115 -1027 -723 -967 -1410 38 -429 210 -680 527
-767 119 -33 342 -30 475 5 541 144 944 791 888 1429 -23 269 -90 439 -225
572 -72 71 -149 117 -250 152 -70 24 -98 28 -225 30 -98 2 -170 -1 -223 -11z
m314 -328 c85 -37 127 -96 155 -214 22 -94 14 -377 -16 -516 -62 -292 -197
-572 -347 -720 -110 -109 -184 -142 -295 -135 -156 10 -285 137 -334 330 -13
50 -15 94 -11 208 13 358 151 716 356 921 64 64 134 108 216 136 53 17 227 11
276 -10z" fill="#57586E"/>
<path d="M9052 2205 c-287 -52 -543 -215 -724 -462 -64 -87 -142 -243 -183
-365 -139 -416 -75 -920 148 -1164 76 -83 155 -135 255 -168 224 -74 487 -54
707 54 327 161 575 495 683 918 25 100 27 121 27 322 0 221 -6 270 -47 400
-37 118 -86 199 -173 287 -137 138 -282 193 -505 192 -63 0 -148 -7 -188 -14z
m319 -337 c65 -30 101 -71 132 -154 19 -53 21 -79 21 -244 1 -202 -11 -288
-62 -465 -98 -337 -274 -601 -458 -687 -59 -28 -72 -30 -143 -26 -93 5 -161
38 -224 108 -95 105 -127 204 -127 388 0 493 256 994 560 1094 83 27 226 21
301 -14z" fill="#57586E"/>
<path d="M6586 2183 c-27 -9 -64 -32 -84 -50 l-35 -33 7 -177 7 -178 -201
-775 c-215 -825 -216 -830 -173 -889 27 -36 74 -50 173 -50 104 -1 148 10 182
46 34 37 39 52 154 515 54 219 101 394 104 390 4 -4 19 -39 34 -78 65 -173
243 -421 446 -625 179 -180 256 -229 360 -229 46 0 243 53 268 73 49 39 -53
206 -136 222 -56 10 -93 37 -188 138 -205 218 -413 515 -414 590 0 38 315 341
545 523 137 108 193 144 342 218 156 77 167 88 161 155 -6 60 -53 158 -89 184
-40 29 -142 34 -199 11 -123 -51 -286 -164 -495 -342 -143 -123 -393 -371
-488 -484 -44 -54 -83 -96 -84 -94 -2 2 21 111 52 242 76 322 96 420 96 476 2
158 -184 277 -345 221z" fill="#57586E"/>
<path d="M5254 2174 c-554 -93 -1007 -552 -1134 -1149 -30 -140 -38 -411 -16
-515 24 -114 82 -225 160 -307 109 -116 244 -174 458 -195 324 -33 637 62 889
268 138 113 267 308 254 384 -9 45 -37 99 -67 127 -57 53 -205 80 -266 49 -38
-20 -98 -93 -154 -190 -23 -39 -51 -86 -62 -104 -48 -76 -237 -187 -362 -213
-164 -34 -361 57 -431 199 -26 53 -28 66 -27 167 4 403 235 822 576 1046 98
64 173 96 263 112 77 13 119 4 176 -37 64 -47 79 -84 79 -198 1 -160 38 -208
163 -208 82 0 142 21 191 68 52 51 66 87 66 179 -1 256 -150 456 -387 518 -71
19 -257 18 -369 -1z" fill="#57586E"/>
</g>
</svg>
